{
.appVersion = "1075";
classes = (
{
automatic = 1;
code = "A A.alt B C D E F G H I J K L M M.alt N N.alt O P Q R S T U V V.alt W W.alt X X.alt Y Y.alt Z a b c d e e.alt f g h i j j.alt k l m n o p q r s s.alt t u v v.alt w x x.alt y z j_s_s.liga A.sc B.sc C.sc D.sc E.sc F.sc G.sc H.sc I.sc J.sc K.sc L.sc M.sc N.sc O.sc P.sc Q.sc R.sc S.sc T.sc U.sc V.sc W.sc X.sc Y.sc Z.sc uni9526_uni98DF_uni9001.liga uni9001 uni9526 uni98DF";
name = AllLetters;
},
{
code = "a b c d e f g h i j k l m n o p q r s t u v w x y z";
name = LowerCase;
},
{
code = a;
name = Medial;
},
{
code = "";
name = Initial;
},
{
automatic = 1;

glyphs = (
{
color = 2;
glyphname = A;
lastChange = "2018-01-05 08:30:20 +0000";
layers = (
{
layerId = "156A2E6C-2CEB-4630-8DE9-705D0EDBB142";
paths = (
{
closed = 1;
nodes = (
"553 0 LINE",
"352.766 600 LINE",
"247.234 600 LINE",
"47 0 LINE",
"152.529 0 LINE",
"202.589 150 LINE",
"397.412 150 LINE",
"447.471 0 LINE"
);
},
{
closed = 1;
nodes = (
"300 441.885 LINE",
"364.038 250 LINE",
"235.962 250 LINE"
);
}
);
width = 600;
}
);
unicode = 0041;
},
{
color = 2;
glyphname = K;
lastChange = "2018-01-04 08:35:43 +0000";
layers = (
{
layerId = "156A2E6C-2CEB-4630-8DE9-705D0EDBB142";
paths = (
{
closed = 1;
nodes = (
"600 0 LINE",
"285.5 314.5 LINE",
"570.5 600 LINE",
"429.5 600 LINE",
"150 321 LINE",
"150 600 LINE",
"50 600 LINE",
"50 0 LINE",
"150 0 LINE",
"150 179.5 LINE",
"214.5 244 LINE",
"458.5 0 LINE"
);
}
);
width = 650;
}
);
unicode = 004B;
},
{
glyphname = M;
lastChange = "2018-01-05 06:58:25 +0000";
layers = (
{
layerId = "156A2E6C-2CEB-4630-8DE9-705D0EDBB142";
paths = (
{
closed = 1;
nodes = (
"350 130 LINE",
"154.166 600 LINE",
"50 600 LINE",
"50 0 LINE",
"150 0 LINE",
"150 350 LINE",
"295.834 0 LINE",
"404.166 0 LINE",
"550 350 LINE",
"550 0 LINE",
"650 0 LINE",
"650 600 LINE",
"545.834 600 LINE"
);
}
);
width = 700;
}
);
unicode = 004D;
},
{
color = 2;
glyphname = N;
lastChange = "2018-01-05 06:45:45 +0000";
layers = (
{
layerId = "156A2E6C-2CEB-4630-8DE9-705D0EDBB142";
paths = (
{
closed = 1;
nodes = (
"450 600 LINE",
"450 165.138 LINE",
"160.092 600 LINE",
"50 600 LINE",
"50 0 LINE",
"150 0 LINE",
"150 434.863 LINE",
"439.909 0 LINE",
"550 0 LINE",
"550 600 LINE"
);
}
);
width = 600;
}
);
unicode = 004E;
},
{
color = 0;
glyphname = S;
lastChange = "2018-01-05 08:40:58 +0000";
layers = (
{
layerId = "156A2E6C-2CEB-4630-8DE9-705D0EDBB142";
paths = (
{
closed = 1;
nodes = (
"200.412 600 OFFCURVE",
"164.046 585.116 OFFCURVE",
"134.319 556.296 CURVE SMOOTH",
"105.078 527.946 OFFCURVE",
"89.911 496.294 OFFCURVE",
"89.911 456.683 CURVE SMOOTH",
"89.911 426.269 OFFCURVE",
"97.875 394.834 OFFCURVE",
"116.738 367.473 CURVE SMOOTH",
"136.929 338.187 OFFCURVE",
"172.242 308.313 OFFCURVE",
"234.512 258.533 CURVE SMOOTH",
"267.47 232.186 OFFCURVE",
"283.398 216.927 OFFCURVE",
"293.469 204.307 CURVE SMOOTH",
"303.628 191.575 OFFCURVE",
"309.67 175.47 OFFCURVE",
"309.67 161.571 CURVE SMOOTH",
"309.67 147.515 OFFCURVE",
"302.617 134.389 OFFCURVE",
"292.666 126.16 CURVE SMOOTH",
"283.37 118.472 OFFCURVE",
"266.939 109.689 OFFCURVE",
"238.78 109.689 CURVE SMOOTH",
"204.01 109.689 OFFCURVE",
"165.256 136.928 OFFCURVE",
"144.829 173.798 CURVE",
"51 116.735 LINE",
"68.921 79.811 OFFCURVE",
"96.827 49.43 OFFCURVE",
"131.586 28.672 CURVE SMOOTH",
"163.371 9.689 OFFCURVE",
"199.562 0 OFFCURVE",
"240.293 0 CURVE SMOOTH",
"292.423 0 OFFCURVE",
"347.439 17.103 OFFCURVE",
"381.26 51.065 CURVE SMOOTH",
"416.023 85.972 OFFCURVE",
"427 119.05 OFFCURVE",
"427 156.455 CURVE SMOOTH",
"427 185.945 OFFCURVE",
"417.183 214.069 OFFCURVE",
"406.678 233.858 CURVE SMOOTH",
"396.206 253.585 OFFCURVE",
"381.536 271.161 OFFCURVE",
"359.454 293.427 CURVE SMOOTH",
"350.647 302.489 OFFCURVE",
"326.989 325.013 OFFCURVE",
"284.948 359.058 CURVE SMOOTH",
"238.59 396.598 OFFCURVE",
"218.921 413.212 OFFCURVE",
"209.954 424.486 CURVE SMOOTH",
"202.41 433.973 OFFCURVE",
"198.087 445.206 OFFCURVE",
"198.087 457.979 CURVE SMOOTH",
"198.087 467.559 OFFCURVE",
"202.86 479.546 OFFCURVE",
"211.132 486.857 CURVE SMOOTH",
"220.066 494.754 OFFCURVE",
"232.098 499.364 OFFCURVE",
"246.338 499.364 CURVE SMOOTH",
"275.676 499.364 OFFCURVE",
"303.096 485.48 OFFCURVE",
"330.16 443.901 CURVE",
"413.401 501.313 LINE",
"388.122 545.42 OFFCURVE",
"361.66 565.888 OFFCURVE",
"327.478 583.091 CURVE SMOOTH",
"301.611 596.109 OFFCURVE",
"270.404 600 OFFCURVE",
"244.768 600 CURVE SMOOTH"
);
}
);
width = 470;
}
);
unicode = 0053;
},
{
color = 2;
glyphname = V;
lastChange = "2018-01-05 08:49:48 +0000";
layers = (
{
layerId = "156A2E6C-2CEB-4630-8DE9-705D0EDBB142";
paths = (
{
closed = 1;
nodes = (
"252.234 0 LINE",
"52 600 LINE",
"157.529 600 LINE",
"305 158.115 LINE",
"452.471 600 LINE",
"558 600 LINE",
"357.766 0 LINE"
);
}
);
width = 610;
}
);
unicode = 0056;
},
{
glyphname = W;
lastChange = "2018-01-05 08:54:08 +0000";
layers = (
{
layerId = "156A2E6C-2CEB-4630-8DE9-705D0EDBB142";
paths = (
{
closed = 1;
nodes = (
"648.081 600 LINE",
"549.774 206.152 LINE",
"451.46 600 LINE",
"348.54 600 LINE",
"250.227 206.152 LINE",
"151.919 600 LINE",
"49 600 LINE",
"198.767 0 LINE",
"301.687 0 LINE",
"400 393.848 LINE",
"498.313 0 LINE",
"601.233 0 LINE",
"751 600 LINE"
);
}
);
width = 800;
}
);
unicode = 0057;
},
{
color = 2;
glyphname = X;
lastChange = "2018-01-05 08:56:38 +0000";
layers = (
{
layerId = "156A2E6C-2CEB-4630-8DE9-705D0EDBB142";
paths = (
{
closed = 1;
nodes = (
"603 600 LINE",
"481.993 600 LINE",
"330 385.019 LINE",
"179.007 600 LINE",
"49 600 LINE",
"263.497 300 LINE",
"49 0 LINE",
"171.007 0 LINE",
"325 213.981 LINE",
"477.993 0 LINE",
"604 0 LINE",
"391.503 297 LINE"
);
}
);
width = 650;
}
);
unicode = 0058;
},
{
color = 2;
glyphname = Y;
lastChange = "2018-01-05 09:02:47 +0000";
layers = (
{
layerId = "156A2E6C-2CEB-4630-8DE9-705D0EDBB142";
paths = (
{
closed = 1;
nodes = (
"415.753 600 LINE",
"290 359.326 LINE",
"164.247 600 LINE",
"50 600 LINE",
"240 236.367 LINE",
"240 0 LINE",
"340 0 LINE",
"340 236.367 LINE",
"530 600 LINE"
);
}
);
width = 580;
}
);
unicode = 0059;
},
{
color = 2;
glyphname = Z;
lastChange = "2018-01-05 09:03:23 +0000";
layers = (
{
layerId = "156A2E6C-2CEB-4630-8DE9-705D0EDBB142";
paths = (
{
closed = 1;
nodes = (
"450 600 LINE",
"50 600 LINE",
"50 500 LINE",
"332.377 500 LINE",
"50 107.81 LINE",
"50 0 LINE",
"450 0 LINE",
"450 100 LINE",
"167.623 100 LINE",
"450 492.19 LINE"
);
}
);
width = 500;
}
);
unicode = 005A;
},
{
glyphname = a;
lastChange = "2018-01-05 09:28:59 +0000";
layers = (
{
components = (
{
name = "oval-1.comp";
transform = "{1, 0, 0, 1, 45, 0}";
},
{
name = "rect-400.comp";
transform = "{1, 0, 0, 1, 345, 0}";
}
);
layerId = "156A2E6C-2CEB-4630-8DE9-705D0EDBB142";
width = 495;
},
{
associatedMasterId = "156A2E6C-2CEB-4630-8DE9-705D0EDBB142";
layerId = "D2666722-6A6B-436F-9503-4E8FDBECF891";
paths = (
{
closed = 1;
nodes = (
"350 373 LINE",
"321 390 OFFCURVE",
"286 400 OFFCURVE",
"250 400 CURVE",
"140 400 OFFCURVE",
"50 310 OFFCURVE",
"50 200 CURVE",
"50 90 OFFCURVE",
"140 0 OFFCURVE",
"250 0 CURVE",
"286 0 OFFCURVE",
"321 10 OFFCURVE",
"350 27 CURVE",
"350 0 LINE",
"450 0 LINE",
"450 400 LINE",
"350 400 LINE"
);
},
{
closed = 1;
nodes = (
"194 101 OFFCURVE",
"150 145 OFFCURVE",
"150 201 CURVE",
"150 256 OFFCURVE",
"194 301 OFFCURVE",
"250 301 CURVE",
"305 301 OFFCURVE",
"350 256 OFFCURVE",
"350 201 CURVE",
"350 145 OFFCURVE",
"305 101 OFFCURVE",
"250 101 CURVE"
);
}
);
width = 500;
}
);
unicode = 0061;
},
{
glyphname = c;
lastChange = "2018-01-05 08:57:47 +0000";
layers = (
{
layerId = "156A2E6C-2CEB-4630-8DE9-705D0EDBB142";
paths = (
{
closed = 1;
nodes = (
"189 100 OFFCURVE",
"145 145 OFFCURVE",
"145 200 CURVE",
"145 255 OFFCURVE",
"189 300 OFFCURVE",
"245 300 CURVE",
"276 300 OFFCURVE",
"304 285 OFFCURVE",
"322 262 CURVE",
"401 325 LINE",
"364 371 OFFCURVE",
"308 400 OFFCURVE",
"245 400 CURVE",
"134 400 OFFCURVE",
"45 310 OFFCURVE",
"45 200 CURVE",
"45 90 OFFCURVE",
"134 0 OFFCURVE",
"245 0 CURVE",
"300 0 OFFCURVE",
"350 22 OFFCURVE",
"386 59 CURVE",
"315 129 LINE",
"297 111 OFFCURVE",
"272 100 OFFCURVE",
"245 100 CURVE"
);
}
);
width = 451;
}
);
unicode = 0063;
},
{
color = 0;
glyphname = e;
lastChange = "2018-01-05 08:58:15 +0000";
layers = (
{
layerId = "156A2E6C-2CEB-4630-8DE9-705D0EDBB142";
paths = (
{
closed = 1;
nodes = (
"134.5 400 OFFCURVE",
"45 310.5 OFFCURVE",
"45 200 CURVE SMOOTH",
"45 83.5 OFFCURVE",
"129 0 OFFCURVE",
"245 0 CURVE SMOOTH",
"300 0 OFFCURVE",
"348 17.25 OFFCURVE",
"391.5 50 CURVE",
"325.5 120.25 LINE",
"305 108.75 OFFCURVE",
"285 100 OFFCURVE",
"245 100 CURVE SMOOTH",
"198.5 100 OFFCURVE",
"165 124.5 OFFCURVE",
"153.5 160 CURVE",
"443 160 LINE",
"444.5 177 OFFCURVE",
"445 186.5 OFFCURVE",
"445 200 CURVE SMOOTH",
"445 310.5 OFFCURVE",
"355.5 400 OFFCURVE",
"245 400 CURVE SMOOTH"
);
},
{
closed = 1;
nodes = (
"282 300 OFFCURVE",
"314 280 OFFCURVE",
"331 250 CURVE",
"159 250 LINE",
"176 280 OFFCURVE",
"208 300 OFFCURVE",
"245 300 CURVE SMOOTH"
);
}
);
width = 490;
}
);
unicode = 0065;
},
{
glyphname = e.alt;
lastChange = "2018-01-04 12:10:56 +0000";
layers = (
{
layerId = "156A2E6C-2CEB-4630-8DE9-705D0EDBB142";
paths = (
{
closed = 1;
nodes = (
"336 400 OFFCURVE",
"414 336 OFFCURVE",
"436 250 CURVE",
"329 250 LINE",
"312 280 OFFCURVE",
"280 300 OFFCURVE",
"243 300 CURVE",
"206 300 OFFCURVE",
"174 280 OFFCURVE",
"157 250 CURVE",
"50 250 LINE",
"72 336 OFFCURVE",
"150 400 OFFCURVE",
"243 400 CURVE"
);
},
{
closed = 1;
nodes = (
"174 120 OFFCURVE",
"206 100 OFFCURVE",
"243 100 CURVE",
"271 100 OFFCURVE",
"296 111 OFFCURVE",
"314 129 CURVE",
"384 59 LINE",
"348 22 OFFCURVE",
"298 0 OFFCURVE",
"243 0 CURVE",
"150 0 OFFCURVE",
"72 64 OFFCURVE",
"50 150 CURVE",
"157 150 LINE"
);
}
);
width = 477;
}
);
},
{
color = 0;
glyphname = k;
lastChange = "2018-01-05 08:22:05 +0000";
layers = (
{
components = (
{
name = "rect-600.comp";
transform = "{1, 0, 0, 1, 50, 0}";
},
{
name = "curve-4.comp";
transform = "{-1, 0, 0, 1, 450, 0}";
}
);
layerId = "156A2E6C-2CEB-4630-8DE9-705D0EDBB142";
paths = (
{
closed = 1;
nodes = (
"291 265.5 OFFCURVE",
"280.5 255.5 OFFCURVE",
"250 223 CURVE",
"311 168 OFFCURVE",
"350 89 OFFCURVE",
"350 0 CURVE",
"450 0 LINE",
"450 108 OFFCURVE",
"407 206 OFFCURVE",
"337 278 CURVE"
);
}
);
width = 500;
}
);
unicode = 006B;
},
{
glyphname = s;
lastChange = "2018-01-05 09:01:19 +0000";
layers = (
{
layerId = "156A2E6C-2CEB-4630-8DE9-705D0EDBB142";
paths = (
{
closed = 1;
nodes = (
"241.75 277.5 LINE",
"221 297.25 OFFCURVE",
"204 309 OFFCURVE",
"184 309 CURVE SMOOTH",
"174.92 309 OFFCURVE",
"169.5 307.5 OFFCURVE",
"164.25 304.25 CURVE SMOOTH",
"158.5 300.75 OFFCURVE",
"155.5 294 OFFCURVE",
"155.5 287.75 CURVE SMOOTH",
"155.5 276.5 OFFCURVE",
"162.75 268.25 OFFCURVE",
"180.5 260.5 CURVE SMOOTH",
"224.5 241.25 OFFCURVE",
"267 217 OFFCURVE",
"285.5 198 CURVE SMOOTH",
"310.5 172.5 OFFCURVE",
"321 148.5 OFFCURVE",
"321 115 CURVE SMOOTH",
"321 79 OFFCURVE",
"307.25 53.75 OFFCURVE",
"281 31.5 CURVE SMOOTH",
"255 9.5 OFFCURVE",
"222 0.5 OFFCURVE",
"186.5 0.5 CURVE SMOOTH",
"123.75 0.5 OFFCURVE",
"78.75 24.5 OFFCURVE",
"39.75 79.25 CURVE",
"110 135 LINE",
"123.75 118.25 OFFCURVE",
"148.75 92.5 OFFCURVE",
"179 92.5 CURVE SMOOTH",
"191.25 92.5 OFFCURVE",
"201.5 94.75 OFFCURVE",
"207.75 99.5 CURVE SMOOTH",
"212.75 103.25 OFFCURVE",
"217.5 110.25 OFFCURVE",
"217.5 117.75 CURVE SMOOTH",
"217.5 127.5 OFFCURVE",
"213.5 135.75 OFFCURVE",
"199.25 146.5 CURVE SMOOTH",
"182 159.5 OFFCURVE",
"167.5 166.25 OFFCURVE",
"133 183 CURVE SMOOTH",
"81.75 208 OFFCURVE",
"62.5 244.5 OFFCURVE",
"62.5 286.5 CURVE SMOOTH",
"62.5 317 OFFCURVE",
"74.5 344.5 OFFCURVE",
"96.5 366.5 CURVE SMOOTH",
"118 388 OFFCURVE",
"146 400 OFFCURVE",
"183 400 CURVE SMOOTH",
"208 400 OFFCURVE",
"228.5 395.5 OFFCURVE",
"250.5 384.5 CURVE SMOOTH",
"272.5 373.5 OFFCURVE",
"290.75 358 OFFCURVE",
"307.5 339 CURVE"
);
}
);
width = 361;
}
);
unicode = 0073;
},
{
glyphname = v;
lastChange = "2018-01-05 09:03:44 +0000";
layers = (
{
layerId = "156A2E6C-2CEB-4630-8DE9-705D0EDBB142";
paths = (
{
closed = 1;
nodes = (
"302.507 0 LINE",
"450 400 LINE",
"344.985 400 LINE",
"250 142.402 LINE",
"155.015 400 LINE",
"50 400 LINE",
"197.493 0 LINE"
);
}
);
width = 500;
}
);
unicode = 0076;
},
{
color = 2;
glyphname = x;
lastChange = "2018-01-05 09:02:21 +0000";
layers = (
{
layerId = "156A2E6C-2CEB-4630-8DE9-705D0EDBB142";
paths = (
{
closed = 1;
nodes = (
"456 400 LINE",
"332.528 400 LINE",
"250 285.588 LINE",
"167.472 400 LINE",
"44 400 LINE",
"188.264 200 LINE",
"44 0 LINE",
"167.472 0 LINE",
"250 114.412 LINE",
"332.528 0 LINE",
"456 0 LINE",
"311.736 200 LINE"
);
}
);
width = 500;
}
);
unicode = 0078;
},
{
color = 2;
glyphname = K.sc;
lastChange = "2017-12-06 08:35:59 +0000";
layers = (
{
layerId = "156A2E6C-2CEB-4630-8DE9-705D0EDBB142";
paths = (
{
closed = 1;
nodes = (
"450 400 LINE",
"309 400 LINE",
"150 241 LINE",
"150 400 LINE",
"50 400 LINE",
"50 0 LINE",
"150 0 LINE",
"150 100 LINE",
"200 150 LINE",
"283 150 OFFCURVE",
"350 83 OFFCURVE",
"350 0 CURVE",
"450 0 LINE",
"450 108 OFFCURVE",
"381 200 OFFCURVE",
"285 235 CURVE"
);
}
);
width = 500;
}
);
},
{
glyphname = uni9001;
lastChange = "2018-01-02 14:43:04 +0000";
layers = (
{
layerId = "156A2E6C-2CEB-4630-8DE9-705D0EDBB142";
paths = (
{
closed = 1;
nodes = (
"53.5 361 LINE",
"71 341.5 OFFCURVE",
"104 299.5 OFFCURVE",
"118 279.5 CURVE",
"162 313.5 LINE",
"145 335.5 OFFCURVE",
"113 375 OFFCURVE",
"97 394 CURVE"
);
},
{
closed = 1;
nodes = (
"232.5 49 OFFCURVE",
"212.5 51 OFFCURVE",
"196 55.5 CURVE",
"248.5 80.5 OFFCURVE",
"280.5 104.5 OFFCURVE",
"300 130.5 CURVE",
"331 106 OFFCURVE",
"386.5 60.5 OFFCURVE",
"400.5 49 CURVE",
"256 49 LINE"
);
},
{
closed = 1;
nodes = (
"193.5 380 LINE",
"201.5 371.5 OFFCURVE",
"221.5 346.5 OFFCURVE",
"233.5 330.5 CURVE",
"180 330.5 LINE",
"180 281.5 LINE",
"270 281.5 LINE",
"270 232.5 LINE",
"162.5 232.5 LINE",
"162.5 183.5 LINE",
"263.5 183.5 LINE",
"252.5 150 OFFCURVE",
"223.5 126.5 OFFCURVE",
"154 97.5 CURVE",
"178.5 62 LINE",
"163 69 OFFCURVE",
"152 78.5 OFFCURVE",
"144 90 CURVE",
"144 251.5 LINE",
"44.5 251.5 LINE",
"44.5 201.5 LINE",
"91.5 201.5 LINE",
"91.5 88 LINE",
"31 40.5 LINE",
"67 -8 LINE",
"116.5 37.5 LINE",
"144.5 7.5 OFFCURVE",
"182 -4 OFFCURVE",
"252.5 -4 CURVE",
"450 -4 LINE",
"453.5 49 LINE",
"400.5 49 LINE",
"437.5 94.5 LINE",
"420.5 107.5 OFFCURVE",
"349.5 160 OFFCURVE",
"322.5 179.5 CURVE",
"322.5 180.5 OFFCURVE",
"323 182 OFFCURVE",
"323.5 183.5 CURVE",
"440 183.5 LINE",
"440 232.5 LINE",
"328 232.5 LINE",
"328 281.5 LINE",
"433.5 281.5 LINE",
"433.5 330.5 LINE",
"372 330.5 LINE",
"408 380.5 LINE",
"363 409 LINE",
"351 390 OFFCURVE",
"326 355 OFFCURVE",
"308 330.5 CURVE",
"258 330.5 LINE",
"283.5 348.5 LINE",
"273.5 361 OFFCURVE",
"243.5 397.5 OFFCURVE",
"233.5 409 CURVE"
);
}
);
width = 500;
}
);
unicode = 9001;
},
{
glyphname = uni9526;
lastChange = "2018-01-02 14:44:19 +0000";
layers = (
{
layerId = "156A2E6C-2CEB-4630-8DE9-705D0EDBB142";
paths = (
{
closed = 1;
nodes = (
"290 404.5 LINE",
"279.5 369.5 LINE",
"208.5 369.5 LINE",
"208.5 200.5 LINE",
"296.5 200.5 LINE",
"296.5 176 LINE",
"200 176 LINE",
"200 31.5 LINE",
"249 31.5 LINE",
"249 128 LINE",
"296.5 128 LINE",
"296.5 0 LINE",
"344 0 LINE",
"344 128 LINE",
"398.5 128 LINE",
"398.5 92 LINE",
"398.5 75.5 OFFCURVE",
"393.5 71.5 OFFCURVE",
"381.5 71.5 CURVE",
"362 71.5 LINE",
"362 23.5 LINE",
"390.5 23.5 LINE",
"433 23.5 OFFCURVE",
"447.5 34.5 OFFCURVE",
"447.5 77.5 CURVE",
"447.5 176 LINE",
"344 176 LINE",
"344 200.5 LINE",
"435 200.5 LINE",
"435 369.5 LINE",
"336.5 369.5 LINE",
"347.5 404.5 LINE"
);
},
{
closed = 1;
nodes = (
"260 263.5 LINE",
"319 263.5 LINE",
"347.5 263.5 OFFCURVE",
"371.5 255 OFFCURVE",
"383.5 244.5 CURVE",
"260 244.5 LINE"
);
},
{
closed = 1;
nodes = (
"260 325.5 LINE",
"383.5 325.5 LINE",
"383.5 297 LINE",
"372 303 OFFCURVE",
"351 307 OFFCURVE",
"331.5 307 CURVE",
"260 307 LINE"
);
},
{
closed = 1;
nodes = (
"30.5 265 LINE",
"76.5 241 LINE",
"76.5 227 LINE",
"92 227 LINE",
"92 189.5 LINE",
"53 189.5 LINE",
"53 141.5 LINE",
"92 141.5 LINE",
"92 74 LINE",
"92 61.5 OFFCURVE",
"92 54.5 OFFCURVE",
"79.5 48 CURVE",
"106 2.5 LINE",
"134 22 OFFCURVE",
"183 53 OFFCURVE",
"196.5 60 CURVE",
"172 106.5 LINE",
"143 88.5 LINE",
"143 141.5 LINE",
"187.5 141.5 LINE",
"187.5 189.5 LINE",
"143 189.5 LINE",
"143 227 LINE",
"186 227 LINE",
"186 276 LINE",
"95.5 276 LINE",
"111.5 305.5 LINE",
"195.5 305.5 LINE",
"195.5 355.5 LINE",
"139 355.5 LINE",
"153.5 387 LINE",
"103.5 407.5 LINE"
);
}
);
width = 500;
}
);
unicode = 9526;
},
{
glyphname = uni98DF;
lastChange = "2018-01-02 14:41:38 +0000";
layers = (
{
layerId = "156A2E6C-2CEB-4630-8DE9-705D0EDBB142";
paths = (
{
closed = 1;
nodes = (
"159 115.5 LINE",
"190 115.5 LINE",
"176 83.5 LINE",
"220 67.5 LINE",
"159 52 LINE"
);
},
{
closed = 1;
nodes = (
"215.5 115.5 LINE",
"354.5 115.5 LINE",
"335.5 105 OFFCURVE",
"316.5 95 OFFCURVE",
"298 86 CURVE"
);
},
{
closed = 1;
nodes = (
"159 177 LINE",
"266 177 LINE",
"296.5 177 OFFCURVE",
"325.5 167.5 OFFCURVE",
"338 158 CURVE",
"159 158 LINE"
);
},
{
closed = 1;
nodes = (
"159 240 LINE",
"338 240 LINE",
"338 207.5 LINE",
"324 214 OFFCURVE",
"302 220 OFFCURVE",
"278 220 CURVE",
"159 220 LINE"
);
},
{
closed = 1;
nodes = (
"182 299 OFFCURVE",
"229 330 OFFCURVE",
"253 356.5 CURVE",
"277.5 330 OFFCURVE",
"318.5 301.5 OFFCURVE",
"353.5 281.5 CURVE",
"153.5 281.5 LINE"
);
},
{
closed = 1;
nodes = (
"229.5 411.5 LINE",
"188 361.5 OFFCURVE",
"127.5 318.5 OFFCURVE",
"42.5 286.5 CURVE",
"65 236.5 LINE",
"79.5 242.5 OFFCURVE",
"92 248.5 OFFCURVE",
"105 255 CURVE",
"105 59 LINE",
"105 55 OFFCURVE",
"105 45 OFFCURVE",
"91.5 35 CURVE",
"110.5 -11.5 LINE",
"260 25.5 LINE",
"254 55 LINE",
"312.5 32 OFFCURVE",
"384 5.5 OFFCURVE",
"420 -7 CURVE",
"436.5 38 LINE",
"356 66 LINE",
"377.5 77.5 OFFCURVE",
"400.5 90.5 OFFCURVE",
"421 103 CURVE",
"397 138.5 LINE",
"392.5 135.5 LINE",
"392.5 260.5 LINE",
"408.5 252.5 OFFCURVE",
"422.5 246 OFFCURVE",
"439.5 239.5 CURVE",
"461.5 289 LINE",
"377 320.5 OFFCURVE",
"317.5 363 OFFCURVE",
"277 411.5 CURVE"
);
},
{
closed = 1;
nodes = (
"211.5 320 LINE",
"243.5 268.5 LINE",
"289 294 LINE",
"256 344 LINE"
);
}
);
width = 500;
}
);
unicode = 98DF;
},
{
color = 2;
glyphname = two;
lastChange = "2018-01-04 15:11:52 +0000";
layers = (
{
layerId = "156A2E6C-2CEB-4630-8DE9-705D0EDBB142";
paths = (
{
closed = 1;
nodes = (
"450 510 OFFCURVE",
"360 600 OFFCURVE",
"250 600 CURVE",
"140 600 OFFCURVE",
"50 510 OFFCURVE",
"50 400 CURVE",
"150 400 LINE",
"150 455 OFFCURVE",
"195 500 OFFCURVE",
"250 500 CURVE",
"303 500 OFFCURVE",
"347 458 OFFCURVE",
"349 406 CURVE",
"50 106 LINE",
"50 0 LINE",
"450 0 LINE",
"450 100 LINE",
"185 100 LINE",
"450 365 LINE",
"450 400 LINE"
);
}
);
width = 500;
}
);
unicode = 0032;
},
{
glyphname = fraction;
lastChange = "2018-01-04 11:57:20 +0000";
layers = (
{
layerId = "156A2E6C-2CEB-4630-8DE9-705D0EDBB142";
paths = (
{
closed = 1;
nodes = (
"191 0 LINE",
"791 600 LINE",
"650 600 LINE",
"50 0 LINE"
);
}
);
width = 850;
}
);
unicode = 2044;
},
{
color = 2;
glyphname = numbersign;
lastChange = "2018-01-04 15:19:45 +0000";
layers = (
{
layerId = "156A2E6C-2CEB-4630-8DE9-705D0EDBB142";
paths = (
{
closed = 1;
nodes = (
"717 500 LINE",
"623 500 LINE",
"656 600 LINE",
"551 600 LINE",
"517 500 LINE",
"373 500 LINE",
"406 600 LINE",
"301 600 LINE",
"267 500 LINE",
"167 500 LINE",
"134 400 LINE",
"234 400 LINE",
"184 250 LINE",
"84 250 LINE",
"51 150 LINE",
"151 150 LINE",
"101 0 LINE",
"206 0 LINE",
"256 150 LINE",
"401 150 LINE",
"351 0 LINE",
"456 0 LINE",
"506 150 LINE",
"601 150 LINE",
"634 250 LINE",
"539 250 LINE",
"589 400 LINE",
"684 400 LINE"
);
},
{
closed = 1;
nodes = (
"289 250 LINE",
"339 400 LINE",
"484 400 LINE",
"434 250 LINE"
);
}
);
width = 767;
}
);
unicode = 0023;
},
{
color = 4;
glyphname = quotesingle;
lastChange = "2017-12-06 11:44:24 +0000";
layers = (
{
layerId = "156A2E6C-2CEB-4630-8DE9-705D0EDBB142";
paths = (
{
closed = 1;
nodes = (
"241 600 LINE",
"136 600 LINE",
"69 400 LINE",
"174 400 LINE"
);
}
);
width = 300;
}
);
unicode = 0027;
},
{
color = 4;
glyphname = slash;
lastChange = "2018-01-04 09:01:09 +0000";
layers = (
{
layerId = "156A2E6C-2CEB-4630-8DE9-705D0EDBB142";
paths = (
{
closed = 1;
nodes = (
"50 0 LINE",
"250 600 LINE",
"356 600 LINE",
"155 0 LINE"
);
}
);
width = 406;
}
);
unicode = 002F;
},
{
color = 4;
glyphname = guilsinglleft;
lastChange = "2018-01-04 15:14:39 +0000";
layers = (
{
layerId = "156A2E6C-2CEB-4630-8DE9-705D0EDBB142";
paths = (
{
closed = 1;
nodes = (
"155 300 LINE",
"255 600 LINE",
"150 600 LINE",
"50 300 LINE",
"150 0 LINE",
"255 0 LINE"
);
}
);
width = 305;
}
);
unicode = 2039;
},
{
color = 2;
glyphname = currency;
lastChange = "2017-12-06 08:22:42 +0000";
layers = (
{
layerId = "156A2E6C-2CEB-4630-8DE9-705D0EDBB142";
paths = (
{
closed = 1;
nodes = (
"492 337 OFFCURVE",
"482 372 OFFCURVE",
"464 401 CURVE",
"539 477 LINE",
"469 547 LINE",
"393 472 LINE",
"364 490 OFFCURVE",
"329 500 OFFCURVE",
"292 500 CURVE",
"255 500 OFFCURVE",
"220 490 OFFCURVE",
"191 472 CURVE",
"115 547 LINE",
"45 477 LINE",
"120 401 LINE",
"102 372 OFFCURVE",
"92 337 OFFCURVE",
"92 300 CURVE",
"92 263 OFFCURVE",
"102 228 OFFCURVE",
"120 199 CURVE",
"45 123 LINE",
"115 53 LINE",
"191 128 LINE",
"220 110 OFFCURVE",
"255 100 OFFCURVE",
"292 100 CURVE",
"329 100 OFFCURVE",
"364 110 OFFCURVE",
"393 128 CURVE",
"469 53 LINE",
"539 123 LINE",
"464 199 LINE",
"482 228 OFFCURVE",
"492 263 OFFCURVE",
"492 300 CURVE"
);
},
{
closed = 1;
nodes = (
"192 355 OFFCURVE",
"237 400 OFFCURVE",
"292 400 CURVE",
"347 400 OFFCURVE",
"392 355 OFFCURVE",
"392 300 CURVE",
"392 245 OFFCURVE",
"347 200 OFFCURVE",
"292 200 CURVE",
"237 200 OFFCURVE",
"192 245 OFFCURVE",
"192 300 CURVE"
);
}
);
width = 584;
}
);
unicode = 00A4;
},
{
color = 2;
glyphname = yen;
lastChange = "2018-01-05 07:21:36 +0000";
layers = (
{
layerId = "156A2E6C-2CEB-4630-8DE9-705D0EDBB142";
paths = (
{
closed = 1;
nodes = (
"346.555 600 LINE",
"255 447.188 LINE",
"163.445 600 LINE",
"47 600 LINE",
"196.775 350 LINE",
"55.302 350 LINE",
"55.302 250 LINE",
"205.075 250 LINE",
"205.075 200 LINE",
"55.302 200 LINE",
"55.302 100 LINE",
"205.075 100 LINE",
"205.075 0 LINE",
"304.925 0 LINE",
"304.925 100 LINE",
"454.698 100 LINE",
"454.698 200 LINE",
"304.925 200 LINE",
"304.925 250 LINE",
"454.698 250 LINE",
"454.698 350 LINE",
"313.225 350 LINE",
"463 600 LINE"
);
}
);
width = 510;
}
);
unicode = 00A5;
},
{
color = 2;
glyphname = notequal;
lastChange = "2017-12-06 08:29:59 +0000";
layers = (
{
layerId = "156A2E6C-2CEB-4630-8DE9-705D0EDBB142";
paths = (
{
closed = 1;
nodes = (
"450 450 LINE",
"355 450 LINE",
"389 550 LINE",
"283 550 LINE",
"250 450 LINE",
"50 450 LINE",
"50 350 LINE",
"217 350 LINE",
"183 250 LINE",
"50 250 LINE",
"50 150 LINE",
"150 150 LINE",
"117 50 LINE",
"222 50 LINE",
"255 150 LINE",
"450 150 LINE",
"450 250 LINE",
"289 250 LINE",
"322 350 LINE",
"450 350 LINE"
);
}
);
width = 500;
}
);
unicode = 2260;
},
{
color = 4;
glyphname = greater;
lastChange = "2017-12-06 11:44:37 +0000";
layers = (
{
layerId = "156A2E6C-2CEB-4630-8DE9-705D0EDBB142";
paths = (
{
closed = 1;
nodes = (
"450 244 LINE",
"450 356 LINE",
"50 556 LINE",
"50 444 LINE",
"338 300 LINE",
"50 156 LINE",
"50 44 LINE"
);
}
);
width = 500;
}
);
unicode = 003E;
},
{
color = 2;
glyphname = greaterequal;
lastChange = "2017-12-07 09:38:45 +0000";
layers = (
{
components = (
{
name = greater;
}
);
layerId = "156A2E6C-2CEB-4630-8DE9-705D0EDBB142";
paths = (
{
closed = 1;
nodes = (
"450 50 LINE",
"450 162 LINE",
"50 -38 LINE",
"50 -150 LINE"
);
}
);
width = 500;
}
);
unicode = 2265;
},
{
color = 2;
glyphname = asciitilde;
lastChange = "2018-01-04 12:14:20 +0000";
layers = (
{
layerId = "156A2E6C-2CEB-4630-8DE9-705D0EDBB142";
paths = (
{
closed = 1;
nodes = (
"450 347 OFFCURVE",
"428 325 OFFCURVE",
"400 325 CURVE",
"383 325 OFFCURVE",
"346 337 OFFCURVE",
"316 347 CURVE",
"273 362 OFFCURVE",
"233 375 OFFCURVE",
"200 375 CURVE",
"117 375 OFFCURVE",
"50 308 OFFCURVE",
"50 225 CURVE",
"150 225 LINE",
"150 253 OFFCURVE",
"172 275 OFFCURVE",
"200 275 CURVE",
"217 275 OFFCURVE",
"254 263 OFFCURVE",
"284 253 CURVE",
"327 238 OFFCURVE",
"367 225 OFFCURVE",
"400 225 CURVE",
"483 225 OFFCURVE",
"550 292 OFFCURVE",
"550 375 CURVE",
"450 375 LINE"
);
}
);
width = 600;
}
);
unicode = 007E;
},
{
color = 2;
glyphname = emptyset;
lastChange = "2018-01-04 15:21:16 +0000";
layers = (
{
layerId = "156A2E6C-2CEB-4630-8DE9-705D0EDBB142";
paths = (
{
closed = 1;
nodes = (
"565 585 LINE",
"488 508 LINE",
"448 535 OFFCURVE",
"401 550 OFFCURVE",
"350 550 CURVE",
"212 550 OFFCURVE",
"100 438 OFFCURVE",
"100 300 CURVE",
"100 249 OFFCURVE",
"115 202 OFFCURVE",
"141 162 CURVE",
"65 85 LINE",
"135 15 LINE",
"212 91 LINE",
"252 65 OFFCURVE",
"299 50 OFFCURVE",
"350 50 CURVE",
"488 50 OFFCURVE",
"600 162 OFFCURVE",
"600 300 CURVE",
"600 351 OFFCURVE",
"585 398 OFFCURVE",
"559 438 CURVE",
"635 515 LINE"
);
},
{
closed = 1;
nodes = (
"200 383 OFFCURVE",
"267 450 OFFCURVE",
"350 450 CURVE",
"373 450 OFFCURVE",
"395 444 OFFCURVE",
"415 435 CURVE",
"215 235 LINE",
"205 255 OFFCURVE",
"200 277 OFFCURVE",
"200 300 CURVE"
);
},
{
closed = 1;
nodes = (
"500 217 OFFCURVE",
"433 150 OFFCURVE",
"350 150 CURVE",
"327 150 OFFCURVE",
"305 155 OFFCURVE",
"285 165 CURVE",
"485 364 LINE",
"495 345 OFFCURVE",
"500 323 OFFCURVE",
"500 300 CURVE"
);
}
);
width = 700;
}
);
unicode = 2205;
},
{
color = 2;
glyphname = infinity;
lastChange = "2017-12-06 08:32:59 +0000";
layers = (
{
layerId = "156A2E6C-2CEB-4630-8DE9-705D0EDBB142";
paths = (
{
closed = 1;
nodes = (
"650 500 LINE",
"555 500 OFFCURVE",
"495 446 OFFCURVE",
"450 387 CURVE",
"405 446 OFFCURVE",
"345 500 OFFCURVE",
"250 500 CURVE",
"140 500 OFFCURVE",
"50 410 OFFCURVE",
"50 300 CURVE",
"50 190 OFFCURVE",
"140 100 OFFCURVE",
"250 100 CURVE",
"345 100 OFFCURVE",
"405 154 OFFCURVE",
"450 213 CURVE",
"495 154 OFFCURVE",
"555 100 OFFCURVE",
"650 100 CURVE",
"650 100 LINE",
"760 100 OFFCURVE",
"850 190 OFFCURVE",
"850 300 CURVE",
"850 410 OFFCURVE",
"760 500 OFFCURVE",
"650 500 CURVE"
);
},
{
closed = 1;
nodes = (
"195 200 OFFCURVE",
"150 245 OFFCURVE",
"150 300 CURVE",
"150 355 OFFCURVE",
"195 400 OFFCURVE",
"250 400 CURVE",
"311 400 OFFCURVE",
"346 363 OFFCURVE",
"390 300 CURVE",
"346 237 OFFCURVE",
"311 200 OFFCURVE",
"250 200 CURVE"
);
},
{
closed = 1;
nodes = (
"650 200 LINE",
"589 200 OFFCURVE",
"554 237 OFFCURVE",
"510 300 CURVE",
"554 363 OFFCURVE",
"589 400 OFFCURVE",
"650 400 CURVE",
"650 400 LINE",
"705 400 OFFCURVE",
"750 355 OFFCURVE",
"750 300 CURVE",
"750 245 OFFCURVE",
"705 200 OFFCURVE",
"650 200 CURVE"
);
}
);
width = 900;
}
);
unicode = 221E;
},
{
color = 2;
glyphname = integral;
lastChange = "2018-01-04 15:21:37 +0000";
layers = (
{
layerId = "156A2E6C-2CEB-4630-8DE9-705D0EDBB142";
paths = (
{
closed = 1;
nodes = (
"50 0 LINE",
"50 100 LINE",
"118 100 LINE",
"142 100 OFFCURVE",
"162 117 OFFCURVE",
"167 140 CURVE",
"235 479 LINE",
"249 549 OFFCURVE",
"311 600 OFFCURVE",
"382 600 CURVE",
"450 600 LINE",
"450 500 LINE",
"382 500 LINE",
"358 500 OFFCURVE",
"338 483 OFFCURVE",
"333 460 CURVE",
"265 121 LINE",
"251 51 OFFCURVE",
"189 0 OFFCURVE",
"118 0 CURVE"
);
}
);
width = 500;
}
);
unicode = 222B;
},
{
color = 2;
glyphname = summation;
lastChange = "2017-12-06 08:32:59 +0000";
layers = (
{
layerId = "156A2E6C-2CEB-4630-8DE9-705D0EDBB142";
paths = (
{
closed = 1;
nodes = (
"50 600 LINE",
"50 500 LINE",
"150 300 LINE",
"50 100 LINE",
"50 0 LINE",
"400 0 LINE",
"400 100 LINE",
"162 100 LINE",
"262 300 LINE",
"162 500 LINE",
"400 500 LINE",
"400 600 LINE"
);
}
);
width = 450;
}
);
unicode = 2211;
},
{
color = 2;
glyphname = radical;
lastChange = "2018-01-04 15:22:05 +0000";
layers = (
{
layerId = "156A2E6C-2CEB-4630-8DE9-705D0EDBB142";
paths = (
{
closed = 1;
nodes = (
"189 157 LINE",
"167 200 LINE",
"55 200 LINE",
"155 0 LINE",
"262 0 LINE",
"353 500 LINE",
"511 500 LINE",
"511 600 LINE",
"269 600 LINE"
);
}
);
width = 561;
}
);
unicode = 221A;
},
{
color = 2;
glyphname = percent;
lastChange = "2017-12-06 08:37:36 +0000";
layers = (
{
layerId = "156A2E6C-2CEB-4630-8DE9-705D0EDBB142";
paths = (
{
closed = 1;
nodes = (
"390 350 OFFCURVE",
"380 349 OFFCURVE",
"371 347 CURVE",
"455 600 LINE",
"350 600 LINE",
"315 496 LINE",
"288 529 OFFCURVE",
"246 550 OFFCURVE",
"200 550 CURVE",
"117 550 OFFCURVE",
"50 483 OFFCURVE",
"50 400 CURVE",
"50 317 OFFCURVE",
"117 250 OFFCURVE",
"200 250 CURVE",
"212 250 OFFCURVE",
"224 252 OFFCURVE",
"235 254 CURVE",
"150 0 LINE",
"255 0 LINE",
"289 100 LINE",
"316 69 OFFCURVE",
"356 50 OFFCURVE",
"400 50 CURVE",
"483 50 OFFCURVE",
"550 117 OFFCURVE",
"550 200 CURVE",
"550 283 OFFCURVE",
"483 350 OFFCURVE",
"400 350 CURVE"
);
},
{
closed = 1;
nodes = (
"150 428 OFFCURVE",
"172 450 OFFCURVE",
"200 450 CURVE",
"228 450 OFFCURVE",
"250 428 OFFCURVE",
"250 400 CURVE",
"250 372 OFFCURVE",
"228 350 OFFCURVE",
"200 350 CURVE",
"172 350 OFFCURVE",
"150 372 OFFCURVE",
"150 400 CURVE"
);
},
{
closed = 1;
nodes = (
"372 150 OFFCURVE",
"350 172 OFFCURVE",
"350 200 CURVE",
"350 228 OFFCURVE",
"372 250 OFFCURVE",
"400 250 CURVE",
"428 250 OFFCURVE",
"450 228 OFFCURVE",
"450 200 CURVE",
"450 172 OFFCURVE",
"428 150 OFFCURVE",
"400 150 CURVE"
);
}
);
width = 600;
}
);
unicode = 0025;
},
{
color = 4;
glyphname = upArrow;
lastChange = "2017-12-06 11:44:31 +0000";
layers = (
{
layerId = "156A2E6C-2CEB-4630-8DE9-705D0EDBB142";
paths = (
{
closed = 1;
nodes = (
"491 600 LINE",
"349 600 LINE",
"85 335 LINE",
"155 265 LINE",
"370 479 LINE",
"370 0 LINE",
"470 0 LINE",
"470 479 LINE",
"685 265 LINE",
"755 335 LINE"
);
}
);
width = 840;
}
);
unicode = 2191;
},
{
color = 4;
glyphname = northEastArrow;
lastChange = "2017-12-06 11:44:31 +0000";
layers = (
{
layerId = "156A2E6C-2CEB-4630-8DE9-705D0EDBB142";
paths = (
{
closed = 1;
nodes = (
"135 600 LINE",
"135 500 LINE",
"464 500 LINE",
"50 86 LINE",
"120 15 LINE",
"535 430 LINE",
"535 100 LINE",
"635 100 LINE",
"635 500 LINE",
"535 600 LINE"
);
}
);
width = 685;
}
);
unicode = 2197;
},
{
color = 4;
glyphname = leftRightArrow;
lastChange = "2017-12-06 11:45:32 +0000";
layers = (
{
layerId = "156A2E6C-2CEB-4630-8DE9-705D0EDBB142";
paths = (
{
closed = 1;
nodes = (
"415 465 LINE",
"529 350 LINE",
"171 350 LINE",
"285 465 LINE",
"215 535 LINE",
"50 371 LINE",
"50 229 LINE",
"215 65 LINE",
"285 135 LINE",
"171 250 LINE",
"529 250 LINE",
"415 135 LINE",
"485 65 LINE",
"650 229 LINE",
"650 371 LINE",
"485 535 LINE"
);
}
);
width = 700;
}
);
unicode = 2194;
},
{
color = 2;
glyphname = lozenge;
lastChange = "2017-12-06 12:09:19 +0000";
layers = (
{
layerId = "156A2E6C-2CEB-4630-8DE9-705D0EDBB142";
paths = (
{
closed = 1;
nodes = (
"250 0 LINE",
"370 0 LINE",
"570 300 LINE",
"370 600 LINE",
"250 600 LINE",
"50 300 LINE"
);
},
{
closed = 1;
nodes = (
"170 300 LINE",
"310 510 LINE",
"450 300 LINE",
"310 90 LINE"
);
}
);
width = 620;
}
);
unicode = 25CA;
},
{
color = 2;
glyphname = ampersand;
lastChange = "2018-01-04 15:22:29 +0000";
layers = (
{
layerId = "156A2E6C-2CEB-4630-8DE9-705D0EDBB142";
paths = (
{
closed = 1;
nodes = (
"453 187 OFFCURVE",
"453 193 OFFCURVE",
"453 200 CURVE",
"453 300 LINE",
"353 300 LINE",
"353 279 LINE",
"313 319 LINE",
"357 342 OFFCURVE",
"403 375 OFFCURVE",
"403 450 CURVE",
"403 533 OFFCURVE",
"336 600 OFFCURVE",
"253 600 CURVE",
"170 600 OFFCURVE",
"103 533 OFFCURVE",
"103 450 CURVE",
"103 416 OFFCURVE",
"115 384 OFFCURVE",
"135 358 CURVE",
"84 322 OFFCURVE",
"50 273 OFFCURVE",
"50 200 CURVE",
"50 90 OFFCURVE",
"143 0 OFFCURVE",
"253 0 CURVE",
"318 0 OFFCURVE",
"376 31 OFFCURVE",
"412 79 CURVE",
"491 0 LINE",
"633 0 LINE",
"452 180 LINE"
);
},
{
closed = 1;
nodes = (
"209 425 OFFCURVE",
"203 436 OFFCURVE",
"203 450 CURVE",
"203 478 OFFCURVE",
"226 500 OFFCURVE",
"253 500 CURVE",
"281 500 OFFCURVE",
"303 478 OFFCURVE",
"303 450 CURVE",
"303 425 OFFCURVE",
"283 413 OFFCURVE",
"235 398 CURVE",
"235 398 OFFCURVE",
"222 410 OFFCURVE",
"218 415 CURVE"
);
},
{
closed = 1;
nodes = (
"198 100 OFFCURVE",
"150 145 OFFCURVE",
"150 200 CURVE",
"150 232 OFFCURVE",
"170 269 OFFCURVE",
"207 284 CURVE",
"340 151 LINE",
"323 121 OFFCURVE",
"291 100 OFFCURVE",
"253 100 CURVE"
);
}
);
width = 683;
}
);
unicode = 0026;
},
{
glyphname = copyright;
lastChange = "2017-12-07 11:55:24 +0000";
layers = (
{
components = (
{
name = c;
transform = "{1, 0, 0, 1, 200, 0}";
}
);
layerId = "156A2E6C-2CEB-4630-8DE9-705D0EDBB142";
paths = (
{
closed = 1;
nodes = (
"50 127 OFFCURVE",
"70 59 OFFCURVE",
"104 0 CURVE",
"227 0 LINE",
"179.5 53 OFFCURVE",
"150 123 OFFCURVE",
"150 200 CURVE SMOOTH",
"150 277 OFFCURVE",
"179.5 347 OFFCURVE",
"227 400 CURVE",
"104 400 LINE",
"70 341 OFFCURVE",
"50 273 OFFCURVE",
"50 200 CURVE SMOOTH"
);
},
{
closed = 1;
nodes = (
"796 0 LINE",
"830.5 59 OFFCURVE",
"850 127 OFFCURVE",
"850 200 CURVE SMOOTH",
"850 273 OFFCURVE",
"830.5 341 OFFCURVE",
"796 400 CURVE",
"673.5 400 LINE",
"721 347 OFFCURVE",
"750 277 OFFCURVE",
"750 200 CURVE SMOOTH",
"750 123 OFFCURVE",
"721 53 OFFCURVE",
"673.5 0 CURVE"
);
}
);
width = 900;
}
);
unicode = 00A9;
},
{
glyphname = registered;
lastChange = "2017-12-07 11:55:24 +0000";
layers = (
{
components = (
{
name = R.sc;
transform = "{1, 0, 0, 1, 250, 0}";
}
);
layerId = "156A2E6C-2CEB-4630-8DE9-705D0EDBB142";
paths = (
{
closed = 1;
nodes = (
"50 127 OFFCURVE",
"70 59 OFFCURVE",
"104 0 CURVE",
"227 0 LINE",
"179.5 53 OFFCURVE",
"150 123 OFFCURVE",
"150 200 CURVE SMOOTH",
"150 277 OFFCURVE",
"179.5 347 OFFCURVE",
"227 400 CURVE",
"104 400 LINE",
"70 341 OFFCURVE",
"50 273 OFFCURVE",
"50 200 CURVE SMOOTH"
);
},
{
closed = 1;
nodes = (
"896 0 LINE",
"930.5 59 OFFCURVE",
"950 127 OFFCURVE",
"950 200 CURVE SMOOTH",
"950 273 OFFCURVE",
"930.5 341 OFFCURVE",
"896 400 CURVE",
"773.5 400 LINE",
"821 347 OFFCURVE",
"850 277 OFFCURVE",
"850 200 CURVE SMOOTH",
"850 123 OFFCURVE",
"821 53 OFFCURVE",
"773.5 0 CURVE"
);
}
);
width = 1000;
}
);
unicode = 00AE;
},
{
color = 2;
glyphname = asciicircum;
lastChange = "2017-12-06 11:45:25 +0000";
layers = (
{
layerId = "156A2E6C-2CEB-4630-8DE9-705D0EDBB142";
paths = (
{
closed = 1;
nodes = (
"150 600 LINE",
"50 400 LINE",
"162 400 LINE",
"206 488 LINE",
"250 400 LINE",
"362 400 LINE",
"262 600 LINE"
);
}
);
width = 412;
}
);
unicode = 005E;
},
{
export = 0;
glyphname = _global;
lastChange = "2017-12-29 05:24:36 +0000";
layers = (
{
layerId = "156A2E6C-2CEB-4630-8DE9-705D0EDBB142";
paths = (
{
closed = 0;
nodes = (
"50 600 LINE",
"50 -200 LINE"
);
},
{
closed = 0;
nodes = (
"150 600 LINE",
"150 -200 LINE"
);
},
{
closed = 0;
nodes = (
"350 600 LINE",
"350 -200 LINE"
);
},
{
closed = 0;
nodes = (
"450 600 LINE",
"450 -200 LINE"
);
},
{
closed = 0;
nodes = (
"500 600 LINE",
"500 -200 LINE"
);
},
{
closed = 0;
nodes = (
"0 400 LINE",
"600 400 LINE"
);
},
{
closed = 0;
nodes = (
"0 300 LINE",
"600 300 LINE"
);
},
{
closed = 0;
nodes = (
"0 100 LINE",
"600 100 LINE"
);
},
{
closed = 0;
nodes = (
"0 0 LINE",
"600 0 LINE"
);
},
{
closed = 0;
nodes = (
"0 500 LINE",
"600 500 LINE"
);
},
{
closed = 0;
nodes = (
"0 -100 LINE",
"600 -100 LINE"
);
},
{
closed = 0;
nodes = (
"250 600 LINE",
"250 -200 LINE"
);
},
{
closed = 1;
nodes = (
"360.5 0 OFFCURVE",
"450 89.5 OFFCURVE",
"450 200 CURVE SMOOTH",
"450 310.5 OFFCURVE",
"360.5 400 OFFCURVE",
"250 400 CURVE SMOOTH",
"139.5 400 OFFCURVE",
"50 310.5 OFFCURVE",
"50 200 CURVE SMOOTH",
"50 89.5 OFFCURVE",
"139.5 0 OFFCURVE",
"250 0 CURVE SMOOTH"
);
}
);
width = 600;
}
);
},
{
export = 0;
glyphname = "curve-2.comp";
lastChange = "2017-12-06 06:22:03 +0000";
layers = (
{
layerId = "156A2E6C-2CEB-4630-8DE9-705D0EDBB142";
paths = (
{
closed = 1;
nodes = (
"0 100 LINE",
"55 100 OFFCURVE",
"100 55 OFFCURVE",
"100 0 CURVE",
"200 0 LINE",
"200 110.5 OFFCURVE",
"110.5 200 OFFCURVE",
"0 200 CURVE"
);
}
);
width = 200;
}
);
},
{
export = 0;
glyphname = "curve-1.comp";
lastChange = "2017-12-06 06:22:03 +0000";
layers = (
{
layerId = "156A2E6C-2CEB-4630-8DE9-705D0EDBB142";
paths = (
{
closed = 1;
nodes = (
"0 0 LINE",
"100 0 LINE",
"100 55 OFFCURVE",
"55 100 OFFCURVE",
"0 100 CURVE"
);
}
);
width = 100;
}
);
},
{
export = 0;
glyphname = "curve-1.5.comp";
lastChange = "2017-12-06 06:22:03 +0000";
layers = (
{
layerId = "156A2E6C-2CEB-4630-8DE9-705D0EDBB142";
paths = (
{
closed = 1;
nodes = (
"0 50 LINE",
"27.5 50 OFFCURVE",
"50 27.5 OFFCURVE",
"50 0 CURVE",
"150 0 LINE",
"150 83 OFFCURVE",
"83 150 OFFCURVE",
"0 150 CURVE"
);
}
);
width = 150;
}
);
},
{
export = 0;
glyphname = "curve-2.5.comp";
lastChange = "2017-12-06 06:22:03 +0000";
layers = (
{
layerId = "156A2E6C-2CEB-4630-8DE9-705D0EDBB142";
paths = (
{
closed = 1;
nodes = (
"0 150 LINE",
"83 150 OFFCURVE",
"150 83 OFFCURVE",
"150 0 CURVE",
"250 0 LINE",
"250 138 OFFCURVE",
"138 250 OFFCURVE",
"0 250 CURVE"
);
}
);
width = 250;
}
);
},
{
export = 0;
glyphname = "curve-3.comp";
lastChange = "2017-12-06 06:22:03 +0000";
layers = (
{
layerId = "156A2E6C-2CEB-4630-8DE9-705D0EDBB142";
paths = (
{
closed = 1;
nodes = (
"0 200 LINE",
"110.5 200 OFFCURVE",
"200 110.5 OFFCURVE",
"200 0 CURVE",
"300 0 LINE",
"300 165.5 OFFCURVE",
"165.5 300 OFFCURVE",
"0 300 CURVE"
);
}
);
width = 300;
}
);
},
{
export = 0;
glyphname = "curve-4.comp";
lastChange = "2017-12-06 06:22:03 +0000";
layers = (
{
layerId = "156A2E6C-2CEB-4630-8DE9-705D0EDBB142";
paths = (
{
closed = 1;
nodes = (
"0 300 LINE",
"165.5 300 OFFCURVE",
"300 165.5 OFFCURVE",
"300 0 CURVE",
"400 0 LINE",
"400 221 OFFCURVE",
"221 400 OFFCURVE",
"0 400 CURVE"
);
}
);
width = 400;
}
);
},
{
export = 0;
glyphname = "oval-half-clip45.comp";
lastChange = "2017-12-06 12:08:24 +0000";
layers = (
{
layerId = "156A2E6C-2CEB-4630-8DE9-705D0EDBB142";
paths = (
{
closed = 1;
nodes = (
"341.5 141.5 LINE",
"305 177.5 OFFCURVE",
"255 200 OFFCURVE",
"200 200 CURVE",
"89.5 200 OFFCURVE",
"0 110.5 OFFCURVE",
"0 0 CURVE",
"100 0 LINE",
"100 55 OFFCURVE",
"145 100 OFFCURVE",
"200 100 CURVE",
"227.5 100 OFFCURVE",
"252.5 89 OFFCURVE",
"270.5 70.5 CURVE"
);
}
);
width = 400;
}
);
},
{
export = 0;
glyphname = "oval-half.comp";
lastChange = "2017-12-06 06:22:03 +0000";
layers = (
{
layerId = "156A2E6C-2CEB-4630-8DE9-705D0EDBB142";
paths = (
{
closed = 1;
nodes = (
"255 100 OFFCURVE",
"300 55 OFFCURVE",
"300 0 CURVE",
"400 0 LINE",
"400 110.5 OFFCURVE",
"310.5 200 OFFCURVE",
"200 200 CURVE",
"89.5 200 OFFCURVE",
"0 110.5 OFFCURVE",
"0 0 CURVE",
"100 0 LINE",
"100 55 OFFCURVE",
"145 100 OFFCURVE",
"200 100 CURVE"
);
}
);
width = 400;
}
);
},
{
export = 0;
glyphname = "rect-50.comp";
lastChange = "2017-12-06 06:22:03 +0000";
layers = (
{
layerId = "156A2E6C-2CEB-4630-8DE9-705D0EDBB142";
paths = (
{
closed = 1;
nodes = (
"0 0 LINE",
"100 0 LINE",
"100 50 LINE",
"0 50 LINE"
);
}
);
width = 100;
}
);
},
{
export = 0;
glyphname = "rect-200.comp";
lastChange = "2017-12-06 06:22:03 +0000";
layers = (
{
layerId = "156A2E6C-2CEB-4630-8DE9-705D0EDBB142";
paths = (
{
closed = 1;
nodes = (
"0 0 LINE",
"100 0 LINE",
"100 200 LINE",
"0 200 LINE"
);
}
);
width = 100;
}
);
},
{
export = 0;
glyphname = "curve-1.5-clip45.comp";
lastChange = "2017-12-06 07:06:35 +0000";
layers = (
{
layerId = "156A2E6C-2CEB-4630-8DE9-705D0EDBB142";
paths = (
{
closed = 1;
nodes = (
"79 133.5 OFFCURVE",
"41.5 150 OFFCURVE",
"0 150 CURVE",
"0 50 LINE",
"14 50 OFFCURVE",
"26.5 44.5 OFFCURVE",
"35.5 35.5 CURVE",
"106 106 LINE"
);
}
);
width = 150;
}
);
},
{
export = 0;
glyphname = "curve-2-clip45.comp";
lastChange = "2017-12-06 08:26:30 +0000";
layers = (
{
layerId = "156A2E6C-2CEB-4630-8DE9-705D0EDBB142";
paths = (
{
closed = 1;
nodes = (
"0 100 LINE",
"27.5 100 OFFCURVE",
"52.5 89 OFFCURVE",
"70.5 70.5 CURVE",
"141.5 141.5 LINE",
"105 177.5 OFFCURVE",
"55 200 OFFCURVE",
"0 200 CURVE"
);
}
);
width = 200;
}
);
},
{
export = 0;
glyphname = "curve-3-clip45.comp";
lastChange = "2018-01-03 15:13:12 +0000";
layers = (
{
layerId = "156A2E6C-2CEB-4630-8DE9-705D0EDBB142";
paths = (
{
closed = 1;
nodes = (
"142.5 272.5 OFFCURVE",
"74.5 300 OFFCURVE",
"0 300 CURVE",
"0 200 LINE",
"49.5 200 OFFCURVE",
"95 182 OFFCURVE",
"130 151.5 CURVE",
"195 227.5 LINE"
);
}
);
width = 300;
}
);
},
{
export = 0;
glyphname = "curve-1.75";
lastChange = "2018-01-03 15:15:17 +0000";
layers = (
{
layerId = "156A2E6C-2CEB-4630-8DE9-705D0EDBB142";
paths = (
{
closed = 1;
nodes = (
"0 75 LINE",
"41.5 75 OFFCURVE",
"75 41.5 OFFCURVE",
"75 0 CURVE",
"175 0 LINE",
"175 96.5 OFFCURVE",
"96.5 175 OFFCURVE",
"0 175 CURVE"
);
}
);
width = 175;
}
);
},
{
export = 0;
glyphname = "curve-1.75-clip45.comp";
lastChange = "2018-01-04 08:27:32 +0000";
layers = (
{
layerId = "156A2E6C-2CEB-4630-8DE9-705D0EDBB142";
paths = (
{
closed = 1;
nodes = (
"0 75 LINE",
"20.5 75 OFFCURVE",
"39.5 66.5 OFFCURVE",
"53 53 CURVE",
"123.5 123.5 LINE",
"92 155 OFFCURVE",
"48 175 OFFCURVE",
"0 175 CURVE"
);
}
);
width = 175;
}
);
},
